<svg width="277" height="225" viewBox="0 0 277 225" fill="none" xmlns="http://www.w3.org/2000/svg">
<path d="M20.4639 202H19.3018V192.006H24.873V193.038H20.4639V196.695H24.6064V197.728H20.4639V202ZM30.9707 202L30.7451 200.934H30.6904C30.3167 201.403 29.943 201.722 29.5693 201.891C29.2002 202.055 28.7376 202.137 28.1816 202.137C27.4388 202.137 26.8555 201.945 26.4316 201.562C26.0124 201.18 25.8027 200.635 25.8027 199.929C25.8027 198.416 27.0127 197.623 29.4326 197.55L30.7041 197.509V197.044C30.7041 196.456 30.5765 196.023 30.3213 195.745C30.0706 195.463 29.6673 195.321 29.1113 195.321C28.487 195.321 27.7806 195.513 26.9922 195.896L26.6436 195.027C27.0127 194.827 27.416 194.67 27.8535 194.556C28.2956 194.442 28.7376 194.385 29.1797 194.385C30.0729 194.385 30.7337 194.583 31.1621 194.979C31.5951 195.376 31.8115 196.012 31.8115 196.887V202H30.9707ZM28.4072 201.2C29.1136 201.2 29.6673 201.007 30.0684 200.619C30.474 200.232 30.6768 199.689 30.6768 198.992V198.315L29.542 198.363C28.6396 198.395 27.988 198.536 27.5869 198.787C27.1904 199.033 26.9922 199.418 26.9922 199.942C26.9922 200.353 27.1152 200.665 27.3613 200.879C27.612 201.093 27.9606 201.2 28.4072 201.2ZM37.1504 202.137C36.0658 202.137 35.2249 201.804 34.6279 201.139C34.0355 200.469 33.7393 199.523 33.7393 198.302C33.7393 197.049 34.04 196.08 34.6416 195.396C35.2477 194.713 36.109 194.371 37.2256 194.371C37.5856 194.371 37.9456 194.41 38.3057 194.487C38.6657 194.565 38.9482 194.656 39.1533 194.761L38.8047 195.725C38.554 195.624 38.2806 195.542 37.9844 195.479C37.6882 195.41 37.4261 195.376 37.1982 195.376C35.6761 195.376 34.915 196.347 34.915 198.288C34.915 199.209 35.0996 199.915 35.4688 200.407C35.8424 200.899 36.3939 201.146 37.123 201.146C37.7474 201.146 38.3877 201.011 39.0439 200.742V201.747C38.5426 202.007 37.9115 202.137 37.1504 202.137ZM38.1621 203.976C38.1621 204.418 37.9867 204.759 37.6357 205.001C37.2894 205.243 36.7744 205.363 36.0908 205.363C35.8584 205.363 35.6396 205.343 35.4346 205.302V204.577C35.6396 204.614 35.8766 204.632 36.1455 204.632C36.5055 204.632 36.7767 204.586 36.959 204.495C37.1458 204.404 37.2393 204.235 37.2393 203.989C37.2393 203.793 37.1481 203.634 36.9658 203.511C36.7881 203.392 36.4508 203.294 35.9541 203.217L36.5557 202H37.3076L36.9316 202.786C37.752 202.964 38.1621 203.36 38.1621 203.976ZM45.4355 202L45.21 200.934H45.1553C44.7816 201.403 44.4079 201.722 44.0342 201.891C43.665 202.055 43.2025 202.137 42.6465 202.137C41.9036 202.137 41.3203 201.945 40.8965 201.562C40.4772 201.18 40.2676 200.635 40.2676 199.929C40.2676 198.416 41.4775 197.623 43.8975 197.55L45.1689 197.509V197.044C45.1689 196.456 45.0413 196.023 44.7861 195.745C44.5355 195.463 44.1322 195.321 43.5762 195.321C42.9518 195.321 42.2454 195.513 41.457 195.896L41.1084 195.027C41.4775 194.827 41.8809 194.67 42.3184 194.556C42.7604 194.442 43.2025 194.385 43.6445 194.385C44.5378 194.385 45.1986 194.583 45.627 194.979C46.0599 195.376 46.2764 196.012 46.2764 196.887V202H45.4355ZM42.8721 201.2C43.5785 201.2 44.1322 201.007 44.5332 200.619C44.9388 200.232 45.1416 199.689 45.1416 198.992V198.315L44.0068 198.363C43.1045 198.395 42.4528 198.536 42.0518 198.787C41.6553 199.033 41.457 199.418 41.457 199.942C41.457 200.353 41.5801 200.665 41.8262 200.879C42.0768 201.093 42.4255 201.2 42.8721 201.2ZM57.0908 199.956C57.0908 200.653 56.8311 201.191 56.3115 201.569C55.792 201.948 55.0628 202.137 54.124 202.137C53.1305 202.137 52.3558 201.979 51.7998 201.665V200.612C52.1598 200.795 52.5449 200.938 52.9551 201.043C53.3698 201.148 53.7686 201.2 54.1514 201.2C54.7438 201.2 55.1995 201.107 55.5186 200.92C55.8376 200.729 55.9971 200.439 55.9971 200.052C55.9971 199.76 55.8695 199.512 55.6143 199.307C55.3636 199.097 54.8714 198.851 54.1377 198.568C53.4404 198.309 52.9437 198.083 52.6475 197.892C52.3558 197.696 52.137 197.475 51.9912 197.229C51.8499 196.982 51.7793 196.688 51.7793 196.347C51.7793 195.736 52.0277 195.255 52.5244 194.904C53.0212 194.549 53.7025 194.371 54.5684 194.371C55.375 194.371 56.1634 194.535 56.9336 194.863L56.5303 195.786C55.7783 195.476 55.097 195.321 54.4863 195.321C53.9486 195.321 53.543 195.406 53.2695 195.574C52.9961 195.743 52.8594 195.975 52.8594 196.271C52.8594 196.472 52.9095 196.643 53.0098 196.784C53.1146 196.925 53.2809 197.06 53.5088 197.188C53.7367 197.315 54.1742 197.5 54.8213 197.741C55.71 198.065 56.3092 198.391 56.6191 198.719C56.9336 199.047 57.0908 199.459 57.0908 199.956ZM60.0098 194.508V199.368C60.0098 199.979 60.1488 200.435 60.4268 200.735C60.7048 201.036 61.14 201.187 61.7324 201.187C62.5163 201.187 63.0882 200.972 63.4482 200.544C63.8128 200.116 63.9951 199.416 63.9951 198.445V194.508H65.1299V202H64.1934L64.0293 200.995H63.9678C63.7354 201.364 63.4118 201.647 62.9971 201.843C62.5869 202.039 62.1175 202.137 61.5889 202.137C60.6774 202.137 59.9938 201.92 59.5381 201.487C59.0869 201.054 58.8613 200.362 58.8613 199.409V194.508H60.0098ZM72.1504 202L71.9248 200.934H71.8701C71.4964 201.403 71.1227 201.722 70.749 201.891C70.3799 202.055 69.9173 202.137 69.3613 202.137C68.6185 202.137 68.0352 201.945 67.6113 201.562C67.1921 201.18 66.9824 200.635 66.9824 199.929C66.9824 198.416 68.1924 197.623 70.6123 197.55L71.8838 197.509V197.044C71.8838 196.456 71.7562 196.023 71.501 195.745C71.2503 195.463 70.847 195.321 70.291 195.321C69.6667 195.321 68.9603 195.513 68.1719 195.896L67.8232 195.027C68.1924 194.827 68.5957 194.67 69.0332 194.556C69.4753 194.442 69.9173 194.385 70.3594 194.385C71.2526 194.385 71.9134 194.583 72.3418 194.979C72.7747 195.376 72.9912 196.012 72.9912 196.887V202H72.1504ZM69.5869 201.2C70.2933 201.2 70.847 201.007 71.248 200.619C71.6536 200.232 71.8564 199.689 71.8564 198.992V198.315L70.7217 198.363C69.8193 198.395 69.1676 198.536 68.7666 198.787C68.3701 199.033 68.1719 199.418 68.1719 199.942C68.1719 200.353 68.2949 200.665 68.541 200.879C68.7917 201.093 69.1403 201.2 69.5869 201.2ZM82.459 202.137C81.9714 202.137 81.5247 202.048 81.1191 201.87C80.7181 201.688 80.3809 201.41 80.1074 201.036H80.0254C80.0801 201.474 80.1074 201.888 80.1074 202.28V205.363H78.9727V194.508H79.8955L80.0527 195.533H80.1074C80.3991 195.123 80.7386 194.827 81.126 194.645C81.5133 194.462 81.9577 194.371 82.459 194.371C83.4525 194.371 84.2181 194.711 84.7559 195.39C85.2982 196.069 85.5693 197.021 85.5693 198.247C85.5693 199.478 85.2936 200.435 84.7422 201.118C84.1953 201.797 83.4342 202.137 82.459 202.137ZM82.2949 195.335C81.5293 195.335 80.9756 195.547 80.6338 195.971C80.292 196.395 80.1165 197.069 80.1074 197.994V198.247C80.1074 199.3 80.2829 200.054 80.6338 200.51C80.9847 200.961 81.5475 201.187 82.3223 201.187C82.9694 201.187 83.4753 200.924 83.8398 200.4C84.209 199.876 84.3936 199.154 84.3936 198.233C84.3936 197.299 84.209 196.584 83.8398 196.087C83.4753 195.586 82.9603 195.335 82.2949 195.335ZM90.9766 194.371C91.3092 194.371 91.6077 194.398 91.8721 194.453L91.7148 195.506C91.4049 195.438 91.1315 195.403 90.8945 195.403C90.2884 195.403 89.7689 195.649 89.3359 196.142C88.9076 196.634 88.6934 197.247 88.6934 197.98V202H87.5586V194.508H88.4951L88.625 195.896H88.6797C88.9577 195.408 89.2926 195.032 89.6846 194.768C90.0765 194.503 90.5072 194.371 90.9766 194.371ZM94.4082 202H93.2734V194.508H94.4082V202ZM93.1777 192.478C93.1777 192.218 93.2415 192.029 93.3691 191.91C93.4967 191.787 93.6562 191.726 93.8477 191.726C94.0299 191.726 94.1872 191.787 94.3193 191.91C94.4515 192.033 94.5176 192.222 94.5176 192.478C94.5176 192.733 94.4515 192.924 94.3193 193.052C94.1872 193.175 94.0299 193.236 93.8477 193.236C93.6562 193.236 93.4967 193.175 93.3691 193.052C93.2415 192.924 93.1777 192.733 93.1777 192.478ZM106.364 202V197.126C106.364 196.529 106.237 196.082 105.981 195.786C105.726 195.485 105.33 195.335 104.792 195.335C104.086 195.335 103.564 195.538 103.227 195.943C102.889 196.349 102.721 196.973 102.721 197.816V202H101.586V197.126C101.586 196.529 101.458 196.082 101.203 195.786C100.948 195.485 100.549 195.335 100.007 195.335C99.2959 195.335 98.7741 195.549 98.4414 195.978C98.1133 196.401 97.9492 197.099 97.9492 198.069V202H96.8145V194.508H97.7373L97.9219 195.533H97.9766C98.1908 195.169 98.4915 194.884 98.8789 194.679C99.2708 194.474 99.7083 194.371 100.191 194.371C101.363 194.371 102.128 194.795 102.488 195.643H102.543C102.766 195.251 103.09 194.941 103.514 194.713C103.938 194.485 104.421 194.371 104.963 194.371C105.811 194.371 106.444 194.59 106.863 195.027C107.287 195.46 107.499 196.155 107.499 197.112V202H106.364ZM113.009 202.137C111.901 202.137 111.026 201.799 110.384 201.125C109.746 200.451 109.427 199.514 109.427 198.315C109.427 197.108 109.723 196.148 110.315 195.438C110.912 194.727 111.712 194.371 112.715 194.371C113.654 194.371 114.396 194.681 114.943 195.301C115.49 195.916 115.764 196.729 115.764 197.741V198.459H110.603C110.625 199.339 110.846 200.006 111.266 200.462C111.689 200.918 112.284 201.146 113.05 201.146C113.856 201.146 114.654 200.977 115.442 200.64V201.651C115.041 201.825 114.661 201.948 114.301 202.021C113.945 202.098 113.515 202.137 113.009 202.137ZM112.701 195.321C112.1 195.321 111.619 195.517 111.259 195.909C110.903 196.301 110.694 196.843 110.63 197.536H114.547C114.547 196.821 114.387 196.274 114.068 195.896C113.749 195.513 113.294 195.321 112.701 195.321ZM118.84 202H117.705V194.508H118.84V202ZM117.609 192.478C117.609 192.218 117.673 192.029 117.801 191.91C117.928 191.787 118.088 191.726 118.279 191.726C118.462 191.726 118.619 191.787 118.751 191.91C118.883 192.033 118.949 192.222 118.949 192.478C118.949 192.733 118.883 192.924 118.751 193.052C118.619 193.175 118.462 193.236 118.279 193.236C118.088 193.236 117.928 193.175 117.801 193.052C117.673 192.924 117.609 192.733 117.609 192.478ZM124.664 194.371C124.997 194.371 125.295 194.398 125.56 194.453L125.402 195.506C125.092 195.438 124.819 195.403 124.582 195.403C123.976 195.403 123.456 195.649 123.023 196.142C122.595 196.634 122.381 197.247 122.381 197.98V202H121.246V194.508H122.183L122.312 195.896H122.367C122.645 195.408 122.98 195.032 123.372 194.768C123.764 194.503 124.195 194.371 124.664 194.371ZM131.568 202L131.343 200.934H131.288C130.914 201.403 130.541 201.722 130.167 201.891C129.798 202.055 129.335 202.137 128.779 202.137C128.036 202.137 127.453 201.945 127.029 201.562C126.61 201.18 126.4 200.635 126.4 199.929C126.4 198.416 127.61 197.623 130.03 197.55L131.302 197.509V197.044C131.302 196.456 131.174 196.023 130.919 195.745C130.668 195.463 130.265 195.321 129.709 195.321C129.085 195.321 128.378 195.513 127.59 195.896L127.241 195.027C127.61 194.827 128.014 194.67 128.451 194.556C128.893 194.442 129.335 194.385 129.777 194.385C130.671 194.385 131.331 194.583 131.76 194.979C132.193 195.376 132.409 196.012 132.409 196.887V202H131.568ZM129.005 201.2C129.711 201.2 130.265 201.007 130.666 200.619C131.072 200.232 131.274 199.689 131.274 198.992V198.315L130.14 198.363C129.237 198.395 128.586 198.536 128.185 198.787C127.788 199.033 127.59 199.418 127.59 199.942C127.59 200.353 127.713 200.665 127.959 200.879C128.21 201.093 128.558 201.2 129.005 201.2ZM141.877 202.137C141.389 202.137 140.943 202.048 140.537 201.87C140.136 201.688 139.799 201.41 139.525 201.036H139.443C139.498 201.474 139.525 201.888 139.525 202.28V205.363H138.391V194.508H139.313L139.471 195.533H139.525C139.817 195.123 140.157 194.827 140.544 194.645C140.931 194.462 141.376 194.371 141.877 194.371C142.87 194.371 143.636 194.711 144.174 195.39C144.716 196.069 144.987 197.021 144.987 198.247C144.987 199.478 144.712 200.435 144.16 201.118C143.613 201.797 142.852 202.137 141.877 202.137ZM141.713 195.335C140.947 195.335 140.394 195.547 140.052 195.971C139.71 196.395 139.535 197.069 139.525 197.994V198.247C139.525 199.3 139.701 200.054 140.052 200.51C140.403 200.961 140.965 201.187 141.74 201.187C142.387 201.187 142.893 200.924 143.258 200.4C143.627 199.876 143.812 199.154 143.812 198.233C143.812 197.299 143.627 196.584 143.258 196.087C142.893 195.586 142.378 195.335 141.713 195.335ZM150.142 202.137C149.034 202.137 148.159 201.799 147.517 201.125C146.879 200.451 146.56 199.514 146.56 198.315C146.56 197.108 146.856 196.148 147.448 195.438C148.045 194.727 148.845 194.371 149.848 194.371C150.786 194.371 151.529 194.681 152.076 195.301C152.623 195.916 152.896 196.729 152.896 197.741V198.459H147.735C147.758 199.339 147.979 200.006 148.398 200.462C148.822 200.918 149.417 201.146 150.183 201.146C150.989 201.146 151.787 200.977 152.575 200.64V201.651C152.174 201.825 151.794 201.948 151.434 202.021C151.078 202.098 150.647 202.137 150.142 202.137ZM149.834 195.321C149.232 195.321 148.752 195.517 148.392 195.909C148.036 196.301 147.826 196.843 147.763 197.536H151.68C151.68 196.821 151.52 196.274 151.201 195.896C150.882 195.513 150.426 195.321 149.834 195.321ZM158.256 194.371C158.589 194.371 158.887 194.398 159.151 194.453L158.994 195.506C158.684 195.438 158.411 195.403 158.174 195.403C157.568 195.403 157.048 195.649 156.615 196.142C156.187 196.634 155.973 197.247 155.973 197.98V202H154.838V194.508H155.774L155.904 195.896H155.959C156.237 195.408 156.572 195.032 156.964 194.768C157.356 194.503 157.786 194.371 158.256 194.371ZM166.685 194.508V195.226L165.297 195.39C165.424 195.549 165.538 195.759 165.639 196.019C165.739 196.274 165.789 196.563 165.789 196.887C165.789 197.62 165.538 198.206 165.037 198.644C164.536 199.081 163.848 199.3 162.973 199.3C162.749 199.3 162.54 199.282 162.344 199.245C161.861 199.5 161.619 199.822 161.619 200.209C161.619 200.414 161.703 200.567 161.872 200.667C162.041 200.763 162.33 200.811 162.74 200.811H164.066C164.878 200.811 165.5 200.981 165.933 201.323C166.37 201.665 166.589 202.162 166.589 202.813C166.589 203.643 166.256 204.274 165.591 204.707C164.925 205.145 163.955 205.363 162.679 205.363C161.699 205.363 160.942 205.181 160.409 204.816C159.881 204.452 159.616 203.937 159.616 203.271C159.616 202.816 159.762 202.422 160.054 202.089C160.345 201.756 160.756 201.531 161.284 201.412C161.093 201.326 160.931 201.191 160.799 201.009C160.671 200.826 160.607 200.615 160.607 200.373C160.607 200.1 160.68 199.86 160.826 199.655C160.972 199.45 161.202 199.252 161.517 199.061C161.129 198.901 160.812 198.63 160.566 198.247C160.325 197.864 160.204 197.427 160.204 196.935C160.204 196.114 160.45 195.483 160.942 195.041C161.435 194.594 162.132 194.371 163.034 194.371C163.426 194.371 163.779 194.417 164.094 194.508H166.685ZM160.71 203.258C160.71 203.663 160.881 203.971 161.223 204.181C161.564 204.39 162.054 204.495 162.692 204.495C163.645 204.495 164.349 204.352 164.805 204.064C165.265 203.782 165.495 203.397 165.495 202.909C165.495 202.504 165.37 202.221 165.119 202.062C164.868 201.907 164.397 201.829 163.704 201.829H162.344C161.829 201.829 161.428 201.952 161.141 202.198C160.854 202.444 160.71 202.798 160.71 203.258ZM161.325 196.907C161.325 197.431 161.473 197.828 161.77 198.097C162.066 198.366 162.478 198.5 163.007 198.5C164.114 198.5 164.668 197.962 164.668 196.887C164.668 195.761 164.107 195.198 162.986 195.198C162.453 195.198 162.043 195.342 161.756 195.629C161.469 195.916 161.325 196.342 161.325 196.907ZM169.289 194.508V199.368C169.289 199.979 169.428 200.435 169.706 200.735C169.984 201.036 170.419 201.187 171.012 201.187C171.796 201.187 172.368 200.972 172.728 200.544C173.092 200.116 173.274 199.416 173.274 198.445V194.508H174.409V202H173.473L173.309 200.995H173.247C173.015 201.364 172.691 201.647 172.276 201.843C171.866 202.039 171.397 202.137 170.868 202.137C169.957 202.137 169.273 201.92 168.817 201.487C168.366 201.054 168.141 200.362 168.141 199.409V194.508H169.289ZM181.949 202V197.153C181.949 196.543 181.81 196.087 181.532 195.786C181.254 195.485 180.819 195.335 180.227 195.335C179.443 195.335 178.868 195.547 178.504 195.971C178.139 196.395 177.957 197.094 177.957 198.069V202H176.822V194.508H177.745L177.93 195.533H177.984C178.217 195.164 178.543 194.879 178.962 194.679C179.381 194.474 179.848 194.371 180.363 194.371C181.266 194.371 181.945 194.59 182.4 195.027C182.856 195.46 183.084 196.155 183.084 197.112V202H181.949ZM187.842 201.2C188.042 201.2 188.236 201.187 188.423 201.159C188.61 201.127 188.758 201.095 188.867 201.063V201.932C188.744 201.991 188.562 202.039 188.32 202.075C188.083 202.116 187.869 202.137 187.678 202.137C186.229 202.137 185.504 201.373 185.504 199.847V195.39H184.431V194.843L185.504 194.371L185.982 192.771H186.639V194.508H188.812V195.39H186.639V199.799C186.639 200.25 186.746 200.596 186.96 200.838C187.174 201.079 187.468 201.2 187.842 201.2ZM194.979 202L194.753 200.934H194.698C194.325 201.403 193.951 201.722 193.577 201.891C193.208 202.055 192.745 202.137 192.189 202.137C191.447 202.137 190.863 201.945 190.439 201.562C190.02 201.18 189.811 200.635 189.811 199.929C189.811 198.416 191.021 197.623 193.44 197.55L194.712 197.509V197.044C194.712 196.456 194.584 196.023 194.329 195.745C194.078 195.463 193.675 195.321 193.119 195.321C192.495 195.321 191.788 195.513 191 195.896L190.651 195.027C191.021 194.827 191.424 194.67 191.861 194.556C192.303 194.442 192.745 194.385 193.188 194.385C194.081 194.385 194.742 194.583 195.17 194.979C195.603 195.376 195.819 196.012 195.819 196.887V202H194.979ZM192.415 201.2C193.121 201.2 193.675 201.007 194.076 200.619C194.482 200.232 194.685 199.689 194.685 198.992V198.315L193.55 198.363C192.647 198.395 191.996 198.536 191.595 198.787C191.198 199.033 191 199.418 191 199.942C191 200.353 191.123 200.665 191.369 200.879C191.62 201.093 191.968 201.2 192.415 201.2ZM204.966 202.137C203.858 202.137 202.983 201.799 202.341 201.125C201.703 200.451 201.384 199.514 201.384 198.315C201.384 197.108 201.68 196.148 202.272 195.438C202.869 194.727 203.669 194.371 204.672 194.371C205.611 194.371 206.354 194.681 206.9 195.301C207.447 195.916 207.721 196.729 207.721 197.741V198.459H202.56C202.582 199.339 202.803 200.006 203.223 200.462C203.646 200.918 204.241 201.146 205.007 201.146C205.813 201.146 206.611 200.977 207.399 200.64V201.651C206.998 201.825 206.618 201.948 206.258 202.021C205.902 202.098 205.472 202.137 204.966 202.137ZM204.658 195.321C204.057 195.321 203.576 195.517 203.216 195.909C202.86 196.301 202.651 196.843 202.587 197.536H206.504C206.504 196.821 206.344 196.274 206.025 195.896C205.706 195.513 205.251 195.321 204.658 195.321ZM216.464 202.137C215.356 202.137 214.481 201.799 213.839 201.125C213.201 200.451 212.882 199.514 212.882 198.315C212.882 197.108 213.178 196.148 213.771 195.438C214.368 194.727 215.167 194.371 216.17 194.371C217.109 194.371 217.852 194.681 218.398 195.301C218.945 195.916 219.219 196.729 219.219 197.741V198.459H214.058C214.08 199.339 214.301 200.006 214.721 200.462C215.145 200.918 215.739 201.146 216.505 201.146C217.312 201.146 218.109 200.977 218.897 200.64V201.651C218.496 201.825 218.116 201.948 217.756 202.021C217.4 202.098 216.97 202.137 216.464 202.137ZM216.156 195.321C215.555 195.321 215.074 195.517 214.714 195.909C214.358 196.301 214.149 196.843 214.085 197.536H218.002C218.002 196.821 217.842 196.274 217.523 195.896C217.204 195.513 216.749 195.321 216.156 195.321ZM226.287 202V197.153C226.287 196.543 226.148 196.087 225.87 195.786C225.592 195.485 225.157 195.335 224.564 195.335C223.781 195.335 223.206 195.547 222.842 195.971C222.477 196.395 222.295 197.094 222.295 198.069V202H221.16V194.508H222.083L222.268 195.533H222.322C222.555 195.164 222.881 194.879 223.3 194.679C223.719 194.474 224.186 194.371 224.701 194.371C225.604 194.371 226.283 194.59 226.738 195.027C227.194 195.46 227.422 196.155 227.422 197.112V202H226.287ZM231.4 202L228.557 194.508H229.773L231.387 198.951C231.751 199.99 231.965 200.665 232.029 200.975H232.084C232.134 200.733 232.291 200.234 232.556 199.478C232.825 198.716 233.424 197.06 234.354 194.508H235.57L232.727 202H231.4ZM237.908 202H236.773V194.508H237.908V202ZM236.678 192.478C236.678 192.218 236.742 192.029 236.869 191.91C236.997 191.787 237.156 191.726 237.348 191.726C237.53 191.726 237.687 191.787 237.819 191.91C237.951 192.033 238.018 192.222 238.018 192.478C238.018 192.733 237.951 192.924 237.819 193.052C237.687 193.175 237.53 193.236 237.348 193.236C237.156 193.236 236.997 193.175 236.869 193.052C236.742 192.924 236.678 192.733 236.678 192.478ZM243.479 202.137C242.372 202.137 241.497 201.799 240.854 201.125C240.216 200.451 239.897 199.514 239.897 198.315C239.897 197.108 240.194 196.148 240.786 195.438C241.383 194.727 242.183 194.371 243.186 194.371C244.124 194.371 244.867 194.681 245.414 195.301C245.961 195.916 246.234 196.729 246.234 197.741V198.459H241.073C241.096 199.339 241.317 200.006 241.736 200.462C242.16 200.918 242.755 201.146 243.521 201.146C244.327 201.146 245.125 200.977 245.913 200.64V201.651C245.512 201.825 245.132 201.948 244.771 202.021C244.416 202.098 243.985 202.137 243.479 202.137ZM243.172 195.321C242.57 195.321 242.09 195.517 241.729 195.909C241.374 196.301 241.164 196.843 241.101 197.536H245.018C245.018 196.821 244.858 196.274 244.539 195.896C244.22 195.513 243.764 195.321 243.172 195.321ZM258.279 198.247C258.279 199.468 257.972 200.423 257.356 201.111C256.741 201.795 255.891 202.137 254.807 202.137C254.137 202.137 253.542 201.979 253.022 201.665C252.503 201.351 252.102 200.899 251.819 200.312C251.537 199.724 251.396 199.035 251.396 198.247C251.396 197.026 251.701 196.076 252.312 195.396C252.922 194.713 253.77 194.371 254.854 194.371C255.903 194.371 256.734 194.72 257.35 195.417C257.969 196.114 258.279 197.058 258.279 198.247ZM252.571 198.247C252.571 199.204 252.763 199.933 253.146 200.435C253.528 200.936 254.091 201.187 254.834 201.187C255.577 201.187 256.14 200.938 256.522 200.441C256.91 199.94 257.104 199.209 257.104 198.247C257.104 197.295 256.91 196.572 256.522 196.08C256.14 195.583 255.572 195.335 254.82 195.335C254.077 195.335 253.517 195.579 253.139 196.066C252.76 196.554 252.571 197.281 252.571 198.247ZM15.8975 221.137C14.8128 221.137 13.972 220.804 13.375 220.139C12.7826 219.469 12.4863 218.523 12.4863 217.302C12.4863 216.049 12.7871 215.08 13.3887 214.396C13.9948 213.713 14.8561 213.371 15.9727 213.371C16.3327 213.371 16.6927 213.41 17.0527 213.487C17.4128 213.565 17.6953 213.656 17.9004 213.761L17.5518 214.725C17.3011 214.624 17.0277 214.542 16.7314 214.479C16.4352 214.41 16.1732 214.376 15.9453 214.376C14.4232 214.376 13.6621 215.347 13.6621 217.288C13.6621 218.209 13.8467 218.915 14.2158 219.407C14.5895 219.899 15.141 220.146 15.8701 220.146C16.4945 220.146 17.1348 220.011 17.791 219.742V220.747C17.2897 221.007 16.6585 221.137 15.8975 221.137ZM26.042 217.247C26.042 218.468 25.7344 219.423 25.1191 220.111C24.5039 220.795 23.654 221.137 22.5693 221.137C21.8994 221.137 21.3047 220.979 20.7852 220.665C20.2656 220.351 19.8646 219.899 19.582 219.312C19.2995 218.724 19.1582 218.035 19.1582 217.247C19.1582 216.026 19.4635 215.076 20.0742 214.396C20.6849 213.713 21.5326 213.371 22.6172 213.371C23.6654 213.371 24.4971 213.72 25.1123 214.417C25.7321 215.114 26.042 216.058 26.042 217.247ZM20.334 217.247C20.334 218.204 20.5254 218.933 20.9082 219.435C21.291 219.936 21.8538 220.187 22.5967 220.187C23.3395 220.187 23.9023 219.938 24.2852 219.441C24.6725 218.94 24.8662 218.209 24.8662 217.247C24.8662 216.295 24.6725 215.572 24.2852 215.08C23.9023 214.583 23.335 214.335 22.583 214.335C21.8402 214.335 21.2796 214.579 20.9014 215.066C20.5231 215.554 20.334 216.281 20.334 217.247ZM21.6465 212.346C21.8652 212.063 22.0999 211.721 22.3506 211.32C22.6058 210.919 22.8063 210.571 22.9521 210.274H24.333V210.418C24.1325 210.714 23.834 211.079 23.4375 211.512C23.041 211.945 22.6969 212.28 22.4053 212.517H21.6465V212.346ZM33.1377 219.995H33.0762C32.5521 220.756 31.7682 221.137 30.7246 221.137C29.7448 221.137 28.9814 220.802 28.4346 220.132C27.8923 219.462 27.6211 218.509 27.6211 217.274C27.6211 216.039 27.8945 215.08 28.4414 214.396C28.9883 213.713 29.7493 213.371 30.7246 213.371C31.7409 213.371 32.5202 213.74 33.0625 214.479H33.1514L33.1035 213.938L33.0762 213.412V210.363H34.2109V221H33.2881L33.1377 219.995ZM30.8682 220.187C31.6429 220.187 32.2035 219.977 32.5498 219.558C32.9007 219.134 33.0762 218.452 33.0762 217.514V217.274C33.0762 216.213 32.8984 215.456 32.543 215.005C32.1921 214.549 31.6292 214.321 30.8545 214.321C30.1891 214.321 29.6787 214.581 29.3232 215.101C28.9723 215.616 28.7969 216.345 28.7969 217.288C28.7969 218.245 28.9723 218.967 29.3232 219.455C29.6742 219.943 30.1891 220.187 30.8682 220.187ZM37.7588 221H36.624V213.508H37.7588V221ZM36.5283 211.478C36.5283 211.218 36.5921 211.029 36.7197 210.91C36.8473 210.787 37.0068 210.726 37.1982 210.726C37.3805 210.726 37.5378 210.787 37.6699 210.91C37.8021 211.033 37.8682 211.222 37.8682 211.478C37.8682 211.733 37.8021 211.924 37.6699 212.052C37.5378 212.175 37.3805 212.236 37.1982 212.236C37.0068 212.236 36.8473 212.175 36.7197 212.052C36.5921 211.924 36.5283 211.733 36.5283 211.478ZM46.2969 213.508V214.226L44.9092 214.39C45.0368 214.549 45.1507 214.759 45.251 215.019C45.3512 215.274 45.4014 215.563 45.4014 215.887C45.4014 216.62 45.1507 217.206 44.6494 217.644C44.1481 218.081 43.46 218.3 42.585 218.3C42.3617 218.3 42.152 218.282 41.9561 218.245C41.473 218.5 41.2314 218.822 41.2314 219.209C41.2314 219.414 41.3158 219.567 41.4844 219.667C41.653 219.763 41.9424 219.811 42.3525 219.811H43.6787C44.4899 219.811 45.112 219.981 45.5449 220.323C45.9824 220.665 46.2012 221.162 46.2012 221.813C46.2012 222.643 45.8685 223.274 45.2031 223.707C44.5378 224.145 43.5671 224.363 42.291 224.363C41.3112 224.363 40.5547 224.181 40.0215 223.816C39.4928 223.452 39.2285 222.937 39.2285 222.271C39.2285 221.816 39.3743 221.422 39.666 221.089C39.9577 220.756 40.3678 220.531 40.8965 220.412C40.7051 220.326 40.5433 220.191 40.4111 220.009C40.2835 219.826 40.2197 219.615 40.2197 219.373C40.2197 219.1 40.2926 218.86 40.4385 218.655C40.5843 218.45 40.8145 218.252 41.1289 218.061C40.7415 217.901 40.4248 217.63 40.1787 217.247C39.9372 216.864 39.8164 216.427 39.8164 215.935C39.8164 215.114 40.0625 214.483 40.5547 214.041C41.0469 213.594 41.7441 213.371 42.6465 213.371C43.0384 213.371 43.3916 213.417 43.7061 213.508H46.2969ZM40.3223 222.258C40.3223 222.663 40.4932 222.971 40.835 223.181C41.1768 223.39 41.6667 223.495 42.3047 223.495C43.2572 223.495 43.9613 223.352 44.417 223.064C44.8773 222.782 45.1074 222.397 45.1074 221.909C45.1074 221.504 44.9821 221.221 44.7314 221.062C44.4808 220.907 44.0091 220.829 43.3164 220.829H41.9561C41.4411 220.829 41.04 220.952 40.7529 221.198C40.4658 221.444 40.3223 221.798 40.3223 222.258ZM40.9375 215.907C40.9375 216.431 41.0856 216.828 41.3818 217.097C41.6781 217.366 42.0905 217.5 42.6191 217.5C43.7266 217.5 44.2803 216.962 44.2803 215.887C44.2803 214.761 43.7197 214.198 42.5986 214.198C42.0654 214.198 41.6553 214.342 41.3682 214.629C41.0811 214.916 40.9375 215.342 40.9375 215.907ZM54.3018 217.247C54.3018 218.468 53.9941 219.423 53.3789 220.111C52.7637 220.795 51.9137 221.137 50.8291 221.137C50.1592 221.137 49.5645 220.979 49.0449 220.665C48.5254 220.351 48.1243 219.899 47.8418 219.312C47.5592 218.724 47.418 218.035 47.418 217.247C47.418 216.026 47.7233 215.076 48.334 214.396C48.9447 213.713 49.7923 213.371 50.877 213.371C51.9251 213.371 52.7568 213.72 53.3721 214.417C53.9919 215.114 54.3018 216.058 54.3018 217.247ZM48.5938 217.247C48.5938 218.204 48.7852 218.933 49.168 219.435C49.5508 219.936 50.1136 220.187 50.8564 220.187C51.5993 220.187 52.1621 219.938 52.5449 219.441C52.9323 218.94 53.126 218.209 53.126 217.247C53.126 216.295 52.9323 215.572 52.5449 215.08C52.1621 214.583 51.5947 214.335 50.8428 214.335C50.0999 214.335 49.5394 214.579 49.1611 215.066C48.7829 215.554 48.5938 216.281 48.5938 217.247ZM65.0342 219.995H64.9727C64.4486 220.756 63.6647 221.137 62.6211 221.137C61.6413 221.137 60.8779 220.802 60.3311 220.132C59.7887 219.462 59.5176 218.509 59.5176 217.274C59.5176 216.039 59.791 215.08 60.3379 214.396C60.8848 213.713 61.6458 213.371 62.6211 213.371C63.6374 213.371 64.4167 213.74 64.959 214.479H65.0479L65 213.938L64.9727 213.412V210.363H66.1074V221H65.1846L65.0342 219.995ZM62.7646 220.187C63.5394 220.187 64.0999 219.977 64.4463 219.558C64.7972 219.134 64.9727 218.452 64.9727 217.514V217.274C64.9727 216.213 64.7949 215.456 64.4395 215.005C64.0885 214.549 63.5257 214.321 62.751 214.321C62.0856 214.321 61.5752 214.581 61.2197 215.101C60.8688 215.616 60.6934 216.345 60.6934 217.288C60.6934 218.245 60.8688 218.967 61.2197 219.455C61.5706 219.943 62.0856 220.187 62.7646 220.187ZM71.6855 221.137C70.5781 221.137 69.7031 220.799 69.0605 220.125C68.4225 219.451 68.1035 218.514 68.1035 217.315C68.1035 216.108 68.3997 215.148 68.9922 214.438C69.5892 213.727 70.389 213.371 71.3916 213.371C72.3304 213.371 73.0732 213.681 73.6201 214.301C74.167 214.916 74.4404 215.729 74.4404 216.741V217.459H69.2793C69.3021 218.339 69.5231 219.006 69.9424 219.462C70.3662 219.918 70.9609 220.146 71.7266 220.146C72.5332 220.146 73.3307 219.977 74.1191 219.64V220.651C73.7181 220.825 73.3376 220.948 72.9775 221.021C72.6221 221.098 72.1914 221.137 71.6855 221.137ZM71.3779 214.321C70.7764 214.321 70.2956 214.517 69.9355 214.909C69.5801 215.301 69.3704 215.843 69.3066 216.536H73.2236C73.2236 215.821 73.0641 215.274 72.7451 214.896C72.4261 214.513 71.9704 214.321 71.3779 214.321ZM81.2148 218.956C81.2148 219.653 80.9551 220.191 80.4355 220.569C79.916 220.948 79.1868 221.137 78.248 221.137C77.2546 221.137 76.4798 220.979 75.9238 220.665V219.612C76.2839 219.795 76.6689 219.938 77.0791 220.043C77.4938 220.148 77.8926 220.2 78.2754 220.2C78.8678 220.2 79.3236 220.107 79.6426 219.92C79.9616 219.729 80.1211 219.439 80.1211 219.052C80.1211 218.76 79.9935 218.512 79.7383 218.307C79.4876 218.097 78.9954 217.851 78.2617 217.568C77.5645 217.309 77.0677 217.083 76.7715 216.892C76.4798 216.696 76.2611 216.475 76.1152 216.229C75.974 215.982 75.9033 215.688 75.9033 215.347C75.9033 214.736 76.1517 214.255 76.6484 213.904C77.1452 213.549 77.8265 213.371 78.6924 213.371C79.499 213.371 80.2874 213.535 81.0576 213.863L80.6543 214.786C79.9023 214.476 79.221 214.321 78.6104 214.321C78.0726 214.321 77.667 214.406 77.3936 214.574C77.1201 214.743 76.9834 214.975 76.9834 215.271C76.9834 215.472 77.0335 215.643 77.1338 215.784C77.2386 215.925 77.4049 216.06 77.6328 216.188C77.8607 216.315 78.2982 216.5 78.9453 216.741C79.834 217.065 80.4333 217.391 80.7432 217.719C81.0576 218.047 81.2148 218.459 81.2148 218.956ZM87.9004 218.956C87.9004 219.653 87.6406 220.191 87.1211 220.569C86.6016 220.948 85.8724 221.137 84.9336 221.137C83.9401 221.137 83.1654 220.979 82.6094 220.665V219.612C82.9694 219.795 83.3545 219.938 83.7646 220.043C84.1794 220.148 84.5781 220.2 84.9609 220.2C85.5534 220.2 86.0091 220.107 86.3281 219.92C86.6471 219.729 86.8066 219.439 86.8066 219.052C86.8066 218.76 86.679 218.512 86.4238 218.307C86.1732 218.097 85.681 217.851 84.9473 217.568C84.25 217.309 83.7533 217.083 83.457 216.892C83.1654 216.696 82.9466 216.475 82.8008 216.229C82.6595 215.982 82.5889 215.688 82.5889 215.347C82.5889 214.736 82.8372 214.255 83.334 213.904C83.8307 213.549 84.512 213.371 85.3779 213.371C86.1846 213.371 86.973 213.535 87.7432 213.863L87.3398 214.786C86.5879 214.476 85.9066 214.321 85.2959 214.321C84.7581 214.321 84.3525 214.406 84.0791 214.574C83.8057 214.743 83.6689 214.975 83.6689 215.271C83.6689 215.472 83.7191 215.643 83.8193 215.784C83.9242 215.925 84.0905 216.06 84.3184 216.188C84.5462 216.315 84.9837 216.5 85.6309 216.741C86.5195 217.065 87.1188 217.391 87.4287 217.719C87.7432 218.047 87.9004 218.459 87.9004 218.956ZM94.3604 221L94.1348 219.934H94.0801C93.7064 220.403 93.3327 220.722 92.959 220.891C92.5898 221.055 92.1273 221.137 91.5713 221.137C90.8285 221.137 90.2451 220.945 89.8213 220.562C89.402 220.18 89.1924 219.635 89.1924 218.929C89.1924 217.416 90.4023 216.623 92.8223 216.55L94.0938 216.509V216.044C94.0938 215.456 93.9661 215.023 93.7109 214.745C93.4603 214.463 93.057 214.321 92.501 214.321C91.8766 214.321 91.1702 214.513 90.3818 214.896L90.0332 214.027C90.4023 213.827 90.8057 213.67 91.2432 213.556C91.6852 213.442 92.1273 213.385 92.5693 213.385C93.4626 213.385 94.1234 213.583 94.5518 213.979C94.9847 214.376 95.2012 215.012 95.2012 215.887V221H94.3604ZM91.7969 220.2C92.5033 220.2 93.057 220.007 93.458 219.619C93.8636 219.232 94.0664 218.689 94.0664 217.992V217.315L92.9316 217.363C92.0293 217.395 91.3776 217.536 90.9766 217.787C90.5801 218.033 90.3818 218.418 90.3818 218.942C90.3818 219.353 90.5049 219.665 90.751 219.879C91.0016 220.093 91.3503 220.2 91.7969 220.2ZM106.016 218.956C106.016 219.653 105.756 220.191 105.236 220.569C104.717 220.948 103.988 221.137 103.049 221.137C102.055 221.137 101.281 220.979 100.725 220.665V219.612C101.085 219.795 101.47 219.938 101.88 220.043C102.295 220.148 102.693 220.2 103.076 220.2C103.669 220.2 104.124 220.107 104.443 219.92C104.762 219.729 104.922 219.439 104.922 219.052C104.922 218.76 104.794 218.512 104.539 218.307C104.288 218.097 103.796 217.851 103.062 217.568C102.365 217.309 101.868 217.083 101.572 216.892C101.281 216.696 101.062 216.475 100.916 216.229C100.775 215.982 100.704 215.688 100.704 215.347C100.704 214.736 100.952 214.255 101.449 213.904C101.946 213.549 102.627 213.371 103.493 213.371C104.3 213.371 105.088 213.535 105.858 213.863L105.455 214.786C104.703 214.476 104.022 214.321 103.411 214.321C102.873 214.321 102.468 214.406 102.194 214.574C101.921 214.743 101.784 214.975 101.784 215.271C101.784 215.472 101.834 215.643 101.935 215.784C102.039 215.925 102.206 216.06 102.434 216.188C102.661 216.315 103.099 216.5 103.746 216.741C104.635 217.065 105.234 217.391 105.544 217.719C105.858 218.047 106.016 218.459 106.016 218.956ZM112.476 221L112.25 219.934H112.195C111.822 220.403 111.448 220.722 111.074 220.891C110.705 221.055 110.243 221.137 109.687 221.137C108.944 221.137 108.36 220.945 107.937 220.562C107.517 220.18 107.308 219.635 107.308 218.929C107.308 217.416 108.518 216.623 110.938 216.55L112.209 216.509V216.044C112.209 215.456 112.081 215.023 111.826 214.745C111.576 214.463 111.172 214.321 110.616 214.321C109.992 214.321 109.285 214.513 108.497 214.896L108.148 214.027C108.518 213.827 108.921 213.67 109.358 213.556C109.8 213.442 110.243 213.385 110.685 213.385C111.578 213.385 112.239 213.583 112.667 213.979C113.1 214.376 113.316 215.012 113.316 215.887V221H112.476ZM109.912 220.2C110.618 220.2 111.172 220.007 111.573 219.619C111.979 219.232 112.182 218.689 112.182 217.992V217.315L111.047 217.363C110.145 217.395 109.493 217.536 109.092 217.787C108.695 218.033 108.497 218.418 108.497 218.942C108.497 219.353 108.62 219.665 108.866 219.879C109.117 220.093 109.465 220.2 109.912 220.2ZM116.796 221H115.661V210.363H116.796V221ZM123.81 221L123.584 219.934H123.529C123.156 220.403 122.782 220.722 122.408 220.891C122.039 221.055 121.576 221.137 121.021 221.137C120.278 221.137 119.694 220.945 119.271 220.562C118.851 220.18 118.642 219.635 118.642 218.929C118.642 217.416 119.852 216.623 122.271 216.55L123.543 216.509V216.044C123.543 215.456 123.415 215.023 123.16 214.745C122.91 214.463 122.506 214.321 121.95 214.321C121.326 214.321 120.619 214.513 119.831 214.896L119.482 214.027C119.852 213.827 120.255 213.67 120.692 213.556C121.134 213.442 121.576 213.385 122.019 213.385C122.912 213.385 123.573 213.583 124.001 213.979C124.434 214.376 124.65 215.012 124.65 215.887V221H123.81ZM121.246 220.2C121.952 220.2 122.506 220.007 122.907 219.619C123.313 219.232 123.516 218.689 123.516 217.992V217.315L122.381 217.363C121.479 217.395 120.827 217.536 120.426 217.787C120.029 218.033 119.831 218.418 119.831 218.942C119.831 219.353 119.954 219.665 120.2 219.879C120.451 220.093 120.799 220.2 121.246 220.2ZM134.118 221.137C133.631 221.137 133.184 221.048 132.778 220.87C132.377 220.688 132.04 220.41 131.767 220.036H131.685C131.739 220.474 131.767 220.888 131.767 221.28V224.363H130.632V213.508H131.555L131.712 214.533H131.767C132.058 214.123 132.398 213.827 132.785 213.645C133.173 213.462 133.617 213.371 134.118 213.371C135.112 213.371 135.877 213.711 136.415 214.39C136.957 215.069 137.229 216.021 137.229 217.247C137.229 218.478 136.953 219.435 136.401 220.118C135.854 220.797 135.093 221.137 134.118 221.137ZM133.954 214.335C133.188 214.335 132.635 214.547 132.293 214.971C131.951 215.395 131.776 216.069 131.767 216.994V217.247C131.767 218.3 131.942 219.054 132.293 219.51C132.644 219.961 133.207 220.187 133.981 220.187C134.629 220.187 135.134 219.924 135.499 219.4C135.868 218.876 136.053 218.154 136.053 217.233C136.053 216.299 135.868 215.584 135.499 215.087C135.134 214.586 134.619 214.335 133.954 214.335ZM143.825 221L143.6 219.934H143.545C143.171 220.403 142.798 220.722 142.424 220.891C142.055 221.055 141.592 221.137 141.036 221.137C140.293 221.137 139.71 220.945 139.286 220.562C138.867 220.18 138.657 219.635 138.657 218.929C138.657 217.416 139.867 216.623 142.287 216.55L143.559 216.509V216.044C143.559 215.456 143.431 215.023 143.176 214.745C142.925 214.463 142.522 214.321 141.966 214.321C141.341 214.321 140.635 214.513 139.847 214.896L139.498 214.027C139.867 213.827 140.271 213.67 140.708 213.556C141.15 213.442 141.592 213.385 142.034 213.385C142.927 213.385 143.588 213.583 144.017 213.979C144.45 214.376 144.666 215.012 144.666 215.887V221H143.825ZM141.262 220.2C141.968 220.2 142.522 220.007 142.923 219.619C143.328 219.232 143.531 218.689 143.531 217.992V217.315L142.396 217.363C141.494 217.395 140.842 217.536 140.441 217.787C140.045 218.033 139.847 218.418 139.847 218.942C139.847 219.353 139.97 219.665 140.216 219.879C140.466 220.093 140.815 220.2 141.262 220.2ZM150.429 213.371C150.761 213.371 151.06 213.398 151.324 213.453L151.167 214.506C150.857 214.438 150.584 214.403 150.347 214.403C149.741 214.403 149.221 214.649 148.788 215.142C148.36 215.634 148.146 216.247 148.146 216.98V221H147.011V213.508H147.947L148.077 214.896H148.132C148.41 214.408 148.745 214.032 149.137 213.768C149.529 213.503 149.959 213.371 150.429 213.371ZM157.333 221L157.107 219.934H157.053C156.679 220.403 156.305 220.722 155.932 220.891C155.562 221.055 155.1 221.137 154.544 221.137C153.801 221.137 153.218 220.945 152.794 220.562C152.375 220.18 152.165 219.635 152.165 218.929C152.165 217.416 153.375 216.623 155.795 216.55L157.066 216.509V216.044C157.066 215.456 156.939 215.023 156.684 214.745C156.433 214.463 156.03 214.321 155.474 214.321C154.849 214.321 154.143 214.513 153.354 214.896L153.006 214.027C153.375 213.827 153.778 213.67 154.216 213.556C154.658 213.442 155.1 213.385 155.542 213.385C156.435 213.385 157.096 213.583 157.524 213.979C157.957 214.376 158.174 215.012 158.174 215.887V221H157.333ZM154.77 220.2C155.476 220.2 156.03 220.007 156.431 219.619C156.836 219.232 157.039 218.689 157.039 217.992V217.315L155.904 217.363C155.002 217.395 154.35 217.536 153.949 217.787C153.553 218.033 153.354 218.418 153.354 218.942C153.354 219.353 153.478 219.665 153.724 219.879C153.974 220.093 154.323 220.2 154.77 220.2ZM170.622 217.247C170.622 218.468 170.314 219.423 169.699 220.111C169.084 220.795 168.234 221.137 167.149 221.137C166.479 221.137 165.885 220.979 165.365 220.665C164.846 220.351 164.445 219.899 164.162 219.312C163.88 218.724 163.738 218.035 163.738 217.247C163.738 216.026 164.044 215.076 164.654 214.396C165.265 213.713 166.113 213.371 167.197 213.371C168.245 213.371 169.077 213.72 169.692 214.417C170.312 215.114 170.622 216.058 170.622 217.247ZM164.914 217.247C164.914 218.204 165.105 218.933 165.488 219.435C165.871 219.936 166.434 220.187 167.177 220.187C167.92 220.187 168.482 219.938 168.865 219.441C169.253 218.94 169.446 218.209 169.446 217.247C169.446 216.295 169.253 215.572 168.865 215.08C168.482 214.583 167.915 214.335 167.163 214.335C166.42 214.335 165.86 214.579 165.481 215.066C165.103 215.554 164.914 216.281 164.914 217.247ZM173.685 213.508V218.368C173.685 218.979 173.824 219.435 174.102 219.735C174.38 220.036 174.815 220.187 175.407 220.187C176.191 220.187 176.763 219.972 177.123 219.544C177.488 219.116 177.67 218.416 177.67 217.445V213.508H178.805V221H177.868L177.704 219.995H177.643C177.41 220.364 177.087 220.647 176.672 220.843C176.262 221.039 175.792 221.137 175.264 221.137C174.352 221.137 173.669 220.92 173.213 220.487C172.762 220.054 172.536 219.362 172.536 218.409V213.508H173.685ZM183.638 220.2C183.838 220.2 184.032 220.187 184.219 220.159C184.406 220.127 184.554 220.095 184.663 220.063V220.932C184.54 220.991 184.358 221.039 184.116 221.075C183.879 221.116 183.665 221.137 183.474 221.137C182.024 221.137 181.3 220.373 181.3 218.847V214.39H180.227V213.843L181.3 213.371L181.778 211.771H182.435V213.508H184.608V214.39H182.435V218.799C182.435 219.25 182.542 219.596 182.756 219.838C182.97 220.079 183.264 220.2 183.638 220.2ZM189.585 213.371C189.918 213.371 190.216 213.398 190.48 213.453L190.323 214.506C190.013 214.438 189.74 214.403 189.503 214.403C188.897 214.403 188.377 214.649 187.944 215.142C187.516 215.634 187.302 216.247 187.302 216.98V221H186.167V213.508H187.104L187.233 214.896H187.288C187.566 214.408 187.901 214.032 188.293 213.768C188.685 213.503 189.116 213.371 189.585 213.371ZM196.489 221L196.264 219.934H196.209C195.835 220.403 195.462 220.722 195.088 220.891C194.719 221.055 194.256 221.137 193.7 221.137C192.957 221.137 192.374 220.945 191.95 220.562C191.531 220.18 191.321 219.635 191.321 218.929C191.321 217.416 192.531 216.623 194.951 216.55L196.223 216.509V216.044C196.223 215.456 196.095 215.023 195.84 214.745C195.589 214.463 195.186 214.321 194.63 214.321C194.006 214.321 193.299 214.513 192.511 214.896L192.162 214.027C192.531 213.827 192.935 213.67 193.372 213.556C193.814 213.442 194.256 213.385 194.698 213.385C195.591 213.385 196.252 213.583 196.681 213.979C197.114 214.376 197.33 215.012 197.33 215.887V221H196.489ZM193.926 220.2C194.632 220.2 195.186 220.007 195.587 219.619C195.993 219.232 196.195 218.689 196.195 217.992V217.315L195.061 217.363C194.158 217.395 193.507 217.536 193.105 217.787C192.709 218.033 192.511 218.418 192.511 218.942C192.511 219.353 192.634 219.665 192.88 219.879C193.131 220.093 193.479 220.2 193.926 220.2ZM204.508 218.956C204.508 219.653 204.248 220.191 203.729 220.569C203.209 220.948 202.48 221.137 201.541 221.137C200.548 221.137 199.773 220.979 199.217 220.665V219.612C199.577 219.795 199.962 219.938 200.372 220.043C200.787 220.148 201.186 220.2 201.568 220.2C202.161 220.2 202.617 220.107 202.936 219.92C203.255 219.729 203.414 219.439 203.414 219.052C203.414 218.76 203.286 218.512 203.031 218.307C202.781 218.097 202.288 217.851 201.555 217.568C200.857 217.309 200.361 217.083 200.064 216.892C199.773 216.696 199.554 216.475 199.408 216.229C199.267 215.982 199.196 215.688 199.196 215.347C199.196 214.736 199.445 214.255 199.941 213.904C200.438 213.549 201.119 213.371 201.985 213.371C202.792 213.371 203.58 213.535 204.351 213.863L203.947 214.786C203.195 214.476 202.514 214.321 201.903 214.321C201.366 214.321 200.96 214.406 200.687 214.574C200.413 214.743 200.276 214.975 200.276 215.271C200.276 215.472 200.326 215.643 200.427 215.784C200.532 215.925 200.698 216.06 200.926 216.188C201.154 216.315 201.591 216.5 202.238 216.741C203.127 217.065 203.726 217.391 204.036 217.719C204.351 218.047 204.508 218.459 204.508 218.956ZM213.483 221.137C212.996 221.137 212.549 221.048 212.144 220.87C211.743 220.688 211.405 220.41 211.132 220.036H211.05C211.104 220.474 211.132 220.888 211.132 221.28V224.363H209.997V213.508H210.92L211.077 214.533H211.132C211.424 214.123 211.763 213.827 212.15 213.645C212.538 213.462 212.982 213.371 213.483 213.371C214.477 213.371 215.243 213.711 215.78 214.39C216.323 215.069 216.594 216.021 216.594 217.247C216.594 218.478 216.318 219.435 215.767 220.118C215.22 220.797 214.459 221.137 213.483 221.137ZM213.319 214.335C212.554 214.335 212 214.547 211.658 214.971C211.316 215.395 211.141 216.069 211.132 216.994V217.247C211.132 218.3 211.307 219.054 211.658 219.51C212.009 219.961 212.572 220.187 213.347 220.187C213.994 220.187 214.5 219.924 214.864 219.4C215.233 218.876 215.418 218.154 215.418 217.233C215.418 216.299 215.233 215.584 214.864 215.087C214.5 214.586 213.985 214.335 213.319 214.335ZM221.748 221.137C220.641 221.137 219.766 220.799 219.123 220.125C218.485 219.451 218.166 218.514 218.166 217.315C218.166 216.108 218.462 215.148 219.055 214.438C219.652 213.727 220.451 213.371 221.454 213.371C222.393 213.371 223.136 213.681 223.683 214.301C224.229 214.916 224.503 215.729 224.503 216.741V217.459H219.342C219.365 218.339 219.586 219.006 220.005 219.462C220.429 219.918 221.023 220.146 221.789 220.146C222.596 220.146 223.393 219.977 224.182 219.64V220.651C223.781 220.825 223.4 220.948 223.04 221.021C222.685 221.098 222.254 221.137 221.748 221.137ZM221.44 214.321C220.839 214.321 220.358 214.517 219.998 214.909C219.643 215.301 219.433 215.843 219.369 216.536H223.286C223.286 215.821 223.127 215.274 222.808 214.896C222.489 214.513 222.033 214.321 221.44 214.321ZM231.277 218.956C231.277 219.653 231.018 220.191 230.498 220.569C229.979 220.948 229.249 221.137 228.311 221.137C227.317 221.137 226.542 220.979 225.986 220.665V219.612C226.346 219.795 226.731 219.938 227.142 220.043C227.556 220.148 227.955 220.2 228.338 220.2C228.93 220.2 229.386 220.107 229.705 219.92C230.024 219.729 230.184 219.439 230.184 219.052C230.184 218.76 230.056 218.512 229.801 218.307C229.55 218.097 229.058 217.851 228.324 217.568C227.627 217.309 227.13 217.083 226.834 216.892C226.542 216.696 226.324 216.475 226.178 216.229C226.036 215.982 225.966 215.688 225.966 215.347C225.966 214.736 226.214 214.255 226.711 213.904C227.208 213.549 227.889 213.371 228.755 213.371C229.562 213.371 230.35 213.535 231.12 213.863L230.717 214.786C229.965 214.476 229.284 214.321 228.673 214.321C228.135 214.321 227.729 214.406 227.456 214.574C227.183 214.743 227.046 214.975 227.046 215.271C227.046 215.472 227.096 215.643 227.196 215.784C227.301 215.925 227.467 216.06 227.695 216.188C227.923 216.315 228.361 216.5 229.008 216.741C229.896 217.065 230.496 217.391 230.806 217.719C231.12 218.047 231.277 218.459 231.277 218.956ZM237.963 218.956C237.963 219.653 237.703 220.191 237.184 220.569C236.664 220.948 235.935 221.137 234.996 221.137C234.003 221.137 233.228 220.979 232.672 220.665V219.612C233.032 219.795 233.417 219.938 233.827 220.043C234.242 220.148 234.641 220.2 235.023 220.2C235.616 220.2 236.072 220.107 236.391 219.92C236.71 219.729 236.869 219.439 236.869 219.052C236.869 218.76 236.742 218.512 236.486 218.307C236.236 218.097 235.743 217.851 235.01 217.568C234.312 217.309 233.816 217.083 233.52 216.892C233.228 216.696 233.009 216.475 232.863 216.229C232.722 215.982 232.651 215.688 232.651 215.347C232.651 214.736 232.9 214.255 233.396 213.904C233.893 213.549 234.575 213.371 235.44 213.371C236.247 213.371 237.035 213.535 237.806 213.863L237.402 214.786C236.65 214.476 235.969 214.321 235.358 214.321C234.821 214.321 234.415 214.406 234.142 214.574C233.868 214.743 233.731 214.975 233.731 215.271C233.731 215.472 233.782 215.643 233.882 215.784C233.987 215.925 234.153 216.06 234.381 216.188C234.609 216.315 235.046 216.5 235.693 216.741C236.582 217.065 237.181 217.391 237.491 217.719C237.806 218.047 237.963 218.459 237.963 218.956ZM246.282 217.247C246.282 218.468 245.975 219.423 245.359 220.111C244.744 220.795 243.894 221.137 242.81 221.137C242.14 221.137 241.545 220.979 241.025 220.665C240.506 220.351 240.105 219.899 239.822 219.312C239.54 218.724 239.398 218.035 239.398 217.247C239.398 216.026 239.704 215.076 240.314 214.396C240.925 213.713 241.773 213.371 242.857 213.371C243.906 213.371 244.737 213.72 245.353 214.417C245.972 215.114 246.282 216.058 246.282 217.247ZM240.574 217.247C240.574 218.204 240.766 218.933 241.148 219.435C241.531 219.936 242.094 220.187 242.837 220.187C243.58 220.187 244.143 219.938 244.525 219.441C244.913 218.94 245.106 218.209 245.106 217.247C245.106 216.295 244.913 215.572 244.525 215.08C244.143 214.583 243.575 214.335 242.823 214.335C242.08 214.335 241.52 214.579 241.142 215.066C240.763 215.554 240.574 216.281 240.574 217.247ZM252.886 221L252.66 219.934H252.605C252.232 220.403 251.858 220.722 251.484 220.891C251.115 221.055 250.653 221.137 250.097 221.137C249.354 221.137 248.771 220.945 248.347 220.562C247.927 220.18 247.718 219.635 247.718 218.929C247.718 217.416 248.928 216.623 251.348 216.55L252.619 216.509V216.044C252.619 215.456 252.492 215.023 252.236 214.745C251.986 214.463 251.582 214.321 251.026 214.321C250.402 214.321 249.696 214.513 248.907 214.896L248.559 214.027C248.928 213.827 249.331 213.67 249.769 213.556C250.211 213.442 250.653 213.385 251.095 213.385C251.988 213.385 252.649 213.583 253.077 213.979C253.51 214.376 253.727 215.012 253.727 215.887V221H252.886ZM250.322 220.2C251.029 220.2 251.582 220.007 251.983 219.619C252.389 219.232 252.592 218.689 252.592 217.992V217.315L251.457 217.363C250.555 217.395 249.903 217.536 249.502 217.787C249.105 218.033 248.907 218.418 248.907 218.942C248.907 219.353 249.03 219.665 249.276 219.879C249.527 220.093 249.876 220.2 250.322 220.2ZM260.904 218.956C260.904 219.653 260.645 220.191 260.125 220.569C259.605 220.948 258.876 221.137 257.938 221.137C256.944 221.137 256.169 220.979 255.613 220.665V219.612C255.973 219.795 256.358 219.938 256.769 220.043C257.183 220.148 257.582 220.2 257.965 220.2C258.557 220.2 259.013 220.107 259.332 219.92C259.651 219.729 259.811 219.439 259.811 219.052C259.811 218.76 259.683 218.512 259.428 218.307C259.177 218.097 258.685 217.851 257.951 217.568C257.254 217.309 256.757 217.083 256.461 216.892C256.169 216.696 255.951 216.475 255.805 216.229C255.663 215.982 255.593 215.688 255.593 215.347C255.593 214.736 255.841 214.255 256.338 213.904C256.835 213.549 257.516 213.371 258.382 213.371C259.188 213.371 259.977 213.535 260.747 213.863L260.344 214.786C259.592 214.476 258.91 214.321 258.3 214.321C257.762 214.321 257.356 214.406 257.083 214.574C256.81 214.743 256.673 214.975 256.673 215.271C256.673 215.472 256.723 215.643 256.823 215.784C256.928 215.925 257.094 216.06 257.322 216.188C257.55 216.315 257.988 216.5 258.635 216.741C259.523 217.065 260.123 217.391 260.433 217.719C260.747 218.047 260.904 218.459 260.904 218.956ZM263.782 218.245H263.064L262.716 211.006H264.131L263.782 218.245ZM262.593 220.275C262.593 219.656 262.866 219.346 263.413 219.346C263.677 219.346 263.88 219.425 264.021 219.585C264.167 219.744 264.24 219.975 264.24 220.275C264.24 220.567 264.167 220.795 264.021 220.959C263.876 221.118 263.673 221.198 263.413 221.198C263.176 221.198 262.98 221.128 262.825 220.986C262.67 220.84 262.593 220.604 262.593 220.275Z" fill="#4D5E77"/>
<path d="M12.4734 167H9.95335L4.24735 158.378V167H1.72735V154.418H4.24735L9.95335 163.058V154.418H12.4734V167ZM24.2337 161.798C24.2337 162.158 24.2097 162.482 24.1617 162.77H16.8717C16.9317 163.49 17.1837 164.054 17.6277 164.462C18.0717 164.87 18.6177 165.074 19.2657 165.074C20.2017 165.074 20.8677 164.672 21.2637 163.868H23.9817C23.6937 164.828 23.1417 165.62 22.3257 166.244C21.5097 166.856 20.5077 167.162 19.3197 167.162C18.3597 167.162 17.4957 166.952 16.7277 166.532C15.9717 166.1 15.3777 165.494 14.9457 164.714C14.5257 163.934 14.3157 163.034 14.3157 162.014C14.3157 160.982 14.5257 160.076 14.9457 159.296C15.3657 158.516 15.9537 157.916 16.7097 157.496C17.4657 157.076 18.3357 156.866 19.3197 156.866C20.2677 156.866 21.1137 157.07 21.8577 157.478C22.6137 157.886 23.1957 158.468 23.6037 159.224C24.0237 159.968 24.2337 160.826 24.2337 161.798ZM21.6237 161.078C21.6117 160.43 21.3777 159.914 20.9217 159.53C20.4657 159.134 19.9077 158.936 19.2477 158.936C18.6237 158.936 18.0957 159.128 17.6637 159.512C17.2437 159.884 16.9857 160.406 16.8897 161.078H21.6237ZM31.5991 156.884C32.7871 156.884 33.7471 157.262 34.4791 158.018C35.2111 158.762 35.5771 159.806 35.5771 161.15V167H33.0571V161.492C33.0571 160.7 32.8591 160.094 32.4631 159.674C32.0671 159.242 31.5271 159.026 30.8431 159.026C30.1471 159.026 29.5951 159.242 29.1871 159.674C28.7911 160.094 28.5931 160.7 28.5931 161.492V167H26.0731V157.028H28.5931V158.27C28.9291 157.838 29.3551 157.502 29.8711 157.262C30.3991 157.01 30.9751 156.884 31.5991 156.884ZM43.5894 156.884C44.3454 156.884 45.0174 157.052 45.6054 157.388C46.1934 157.712 46.6494 158.198 46.9734 158.846C47.3094 159.482 47.4774 160.25 47.4774 161.15V167H44.9574V161.492C44.9574 160.7 44.7594 160.094 44.3634 159.674C43.9674 159.242 43.4274 159.026 42.7434 159.026C42.0474 159.026 41.4954 159.242 41.0874 159.674C40.6914 160.094 40.4934 160.7 40.4934 161.492V167H37.9734V153.68H40.4934V158.27C40.8174 157.838 41.2494 157.502 41.7894 157.262C42.3294 157.01 42.9294 156.884 43.5894 156.884ZM59.2878 157.028V167H56.7498V165.74C56.4258 166.172 55.9998 166.514 55.4718 166.766C54.9558 167.006 54.3918 167.126 53.7798 167.126C52.9998 167.126 52.3098 166.964 51.7098 166.64C51.1098 166.304 50.6358 165.818 50.2878 165.182C49.9518 164.534 49.7838 163.766 49.7838 162.878V157.028H52.3038V162.518C52.3038 163.31 52.5018 163.922 52.8978 164.354C53.2938 164.774 53.8338 164.984 54.5178 164.984C55.2138 164.984 55.7598 164.774 56.1558 164.354C56.5518 163.922 56.7498 163.31 56.7498 162.518V157.028H59.2878ZM74.1582 156.884C75.3822 156.884 76.3662 157.262 77.1102 158.018C77.8662 158.762 78.2442 159.806 78.2442 161.15V167H75.7242V161.492C75.7242 160.712 75.5262 160.118 75.1302 159.71C74.7342 159.29 74.1942 159.08 73.5102 159.08C72.8262 159.08 72.2802 159.29 71.8722 159.71C71.4762 160.118 71.2782 160.712 71.2782 161.492V167H68.7582V161.492C68.7582 160.712 68.5602 160.118 68.1642 159.71C67.7682 159.29 67.2282 159.08 66.5442 159.08C65.8482 159.08 65.2962 159.29 64.8882 159.71C64.4922 160.118 64.2942 160.712 64.2942 161.492V167H61.7742V157.028H64.2942V158.234C64.6182 157.814 65.0322 157.484 65.5362 157.244C66.0522 157.004 66.6162 156.884 67.2282 156.884C68.0082 156.884 68.7042 157.052 69.3162 157.388C69.9282 157.712 70.4022 158.18 70.7382 158.792C71.0622 158.216 71.5302 157.754 72.1422 157.406C72.7662 157.058 73.4382 156.884 74.1582 156.884ZM79.9876 161.978C79.9876 160.97 80.1856 160.076 80.5816 159.296C80.9896 158.516 81.5356 157.916 82.2196 157.496C82.9156 157.076 83.6896 156.866 84.5416 156.866C85.2856 156.866 85.9336 157.016 86.4856 157.316C87.0496 157.616 87.4996 157.994 87.8356 158.45V157.028H90.3736V167H87.8356V165.542C87.5116 166.01 87.0616 166.4 86.4856 166.712C85.9216 167.012 85.2676 167.162 84.5236 167.162C83.6836 167.162 82.9156 166.946 82.2196 166.514C81.5356 166.082 80.9896 165.476 80.5816 164.696C80.1856 163.904 79.9876 162.998 79.9876 161.978ZM87.8356 162.014C87.8356 161.402 87.7156 160.88 87.4756 160.448C87.2356 160.004 86.9116 159.668 86.5036 159.44C86.0956 159.2 85.6576 159.08 85.1896 159.08C84.7216 159.08 84.2896 159.194 83.8936 159.422C83.4976 159.65 83.1736 159.986 82.9216 160.43C82.6816 160.862 82.5616 161.378 82.5616 161.978C82.5616 162.578 82.6816 163.106 82.9216 163.562C83.1736 164.006 83.4976 164.348 83.8936 164.588C84.3016 164.828 84.7336 164.948 85.1896 164.948C85.6576 164.948 86.0956 164.834 86.5036 164.606C86.9116 164.366 87.2356 164.03 87.4756 163.598C87.7156 163.154 87.8356 162.626 87.8356 162.014ZM99.6438 158.468C99.9678 158.012 100.412 157.634 100.976 157.334C101.552 157.022 102.206 156.866 102.938 156.866C103.79 156.866 104.558 157.076 105.242 157.496C105.938 157.916 106.484 158.516 106.88 159.296C107.288 160.064 107.492 160.958 107.492 161.978C107.492 162.998 107.288 163.904 106.88 164.696C106.484 165.476 105.938 166.082 105.242 166.514C104.558 166.946 103.79 167.162 102.938 167.162C102.206 167.162 101.558 167.012 100.994 166.712C100.442 166.412 99.9918 166.034 99.6438 165.578V171.752H97.1238V157.028H99.6438V158.468ZM104.918 161.978C104.918 161.378 104.792 160.862 104.54 160.43C104.3 159.986 103.976 159.65 103.568 159.422C103.172 159.194 102.74 159.08 102.272 159.08C101.816 159.08 101.384 159.2 100.976 159.44C100.58 159.668 100.256 160.004 100.004 160.448C99.7638 160.892 99.6438 161.414 99.6438 162.014C99.6438 162.614 99.7638 163.136 100.004 163.58C100.256 164.024 100.58 164.366 100.976 164.606C101.384 164.834 101.816 164.948 102.272 164.948C102.74 164.948 103.172 164.828 103.568 164.588C103.976 164.348 104.3 164.006 104.54 163.562C104.792 163.118 104.918 162.59 104.918 161.978ZM118.593 161.798C118.593 162.158 118.569 162.482 118.521 162.77H111.231C111.291 163.49 111.543 164.054 111.987 164.462C112.431 164.87 112.977 165.074 113.625 165.074C114.561 165.074 115.227 164.672 115.623 163.868H118.341C118.053 164.828 117.501 165.62 116.685 166.244C115.869 166.856 114.867 167.162 113.679 167.162C112.719 167.162 111.855 166.952 111.087 166.532C110.331 166.1 109.737 165.494 109.305 164.714C108.885 163.934 108.675 163.034 108.675 162.014C108.675 160.982 108.885 160.076 109.305 159.296C109.725 158.516 110.313 157.916 111.069 157.496C111.825 157.076 112.695 156.866 113.679 156.866C114.627 156.866 115.473 157.07 116.217 157.478C116.973 157.886 117.555 158.468 117.963 159.224C118.383 159.968 118.593 160.826 118.593 161.798ZM115.983 161.078C115.971 160.43 115.737 159.914 115.281 159.53C114.825 159.134 114.267 158.936 113.607 158.936C112.983 158.936 112.455 159.128 112.023 159.512C111.603 159.884 111.345 160.406 111.249 161.078H115.983ZM122.952 158.576C123.276 158.048 123.696 157.634 124.212 157.334C124.74 157.034 125.34 156.884 126.012 156.884V159.53H125.346C124.554 159.53 123.954 159.716 123.546 160.088C123.15 160.46 122.952 161.108 122.952 162.032V167H120.432V157.028H122.952V158.576ZM131.616 156.866C132.36 156.866 133.014 157.016 133.578 157.316C134.142 157.604 134.586 157.982 134.91 158.45V157.028H137.448V167.072C137.448 167.996 137.262 168.818 136.89 169.538C136.518 170.27 135.96 170.846 135.216 171.266C134.472 171.698 133.572 171.914 132.516 171.914C131.1 171.914 129.936 171.584 129.024 170.924C128.124 170.264 127.614 169.364 127.494 168.224H129.996C130.128 168.68 130.41 169.04 130.842 169.304C131.286 169.58 131.82 169.718 132.444 169.718C133.176 169.718 133.77 169.496 134.226 169.052C134.682 168.62 134.91 167.96 134.91 167.072V165.524C134.586 165.992 134.136 166.382 133.56 166.694C132.996 167.006 132.348 167.162 131.616 167.162C130.776 167.162 130.008 166.946 129.312 166.514C128.616 166.082 128.064 165.476 127.656 164.696C127.26 163.904 127.062 162.998 127.062 161.978C127.062 160.97 127.26 160.076 127.656 159.296C128.064 158.516 128.61 157.916 129.294 157.496C129.99 157.076 130.764 156.866 131.616 156.866ZM134.91 162.014C134.91 161.402 134.79 160.88 134.55 160.448C134.31 160.004 133.986 159.668 133.578 159.44C133.17 159.2 132.732 159.08 132.264 159.08C131.796 159.08 131.364 159.194 130.968 159.422C130.572 159.65 130.248 159.986 129.996 160.43C129.756 160.862 129.636 161.378 129.636 161.978C129.636 162.578 129.756 163.106 129.996 163.562C130.248 164.006 130.572 164.348 130.968 164.588C131.376 164.828 131.808 164.948 132.264 164.948C132.732 164.948 133.17 164.834 133.578 164.606C133.986 164.366 134.31 164.03 134.55 163.598C134.79 163.154 134.91 162.626 134.91 162.014ZM149.323 157.028V167H146.785V165.74C146.461 166.172 146.035 166.514 145.507 166.766C144.991 167.006 144.427 167.126 143.815 167.126C143.035 167.126 142.345 166.964 141.745 166.64C141.145 166.304 140.671 165.818 140.323 165.182C139.987 164.534 139.819 163.766 139.819 162.878V157.028H142.339V162.518C142.339 163.31 142.537 163.922 142.933 164.354C143.329 164.774 143.869 164.984 144.553 164.984C145.249 164.984 145.795 164.774 146.191 164.354C146.587 163.922 146.785 163.31 146.785 162.518V157.028H149.323ZM157.335 156.884C158.523 156.884 159.483 157.262 160.215 158.018C160.947 158.762 161.313 159.806 161.313 161.15V167H158.793V161.492C158.793 160.7 158.595 160.094 158.199 159.674C157.803 159.242 157.263 159.026 156.579 159.026C155.883 159.026 155.331 159.242 154.923 159.674C154.527 160.094 154.329 160.7 154.329 161.492V167H151.809V157.028H154.329V158.27C154.665 157.838 155.091 157.502 155.607 157.262C156.135 157.01 156.711 156.884 157.335 156.884ZM166.644 159.098V163.922C166.644 164.258 166.722 164.504 166.878 164.66C167.046 164.804 167.322 164.876 167.706 164.876H168.876V167H167.292C165.168 167 164.106 165.968 164.106 163.904V159.098H162.918V157.028H164.106V154.562H166.644V157.028H168.876V159.098H166.644ZM170.04 161.978C170.04 160.97 170.238 160.076 170.634 159.296C171.042 158.516 171.588 157.916 172.272 157.496C172.968 157.076 173.742 156.866 174.594 156.866C175.338 156.866 175.986 157.016 176.538 157.316C177.102 157.616 177.552 157.994 177.888 158.45V157.028H180.426V167H177.888V165.542C177.564 166.01 177.114 166.4 176.538 166.712C175.974 167.012 175.32 167.162 174.576 167.162C173.736 167.162 172.968 166.946 172.272 166.514C171.588 166.082 171.042 165.476 170.634 164.696C170.238 163.904 170.04 162.998 170.04 161.978ZM177.888 162.014C177.888 161.402 177.768 160.88 177.528 160.448C177.288 160.004 176.964 159.668 176.556 159.44C176.148 159.2 175.71 159.08 175.242 159.08C174.774 159.08 174.342 159.194 173.946 159.422C173.55 159.65 173.226 159.986 172.974 160.43C172.734 160.862 172.614 161.378 172.614 161.978C172.614 162.578 172.734 163.106 172.974 163.562C173.226 164.006 173.55 164.348 173.946 164.588C174.354 164.828 174.786 164.948 175.242 164.948C175.71 164.948 176.148 164.834 176.556 164.606C176.964 164.366 177.288 164.03 177.528 163.598C177.768 163.154 177.888 162.626 177.888 162.014ZM189.697 158.468C190.021 158.012 190.465 157.634 191.029 157.334C191.605 157.022 192.259 156.866 192.991 156.866C193.843 156.866 194.611 157.076 195.295 157.496C195.991 157.916 196.537 158.516 196.933 159.296C197.341 160.064 197.545 160.958 197.545 161.978C197.545 162.998 197.341 163.904 196.933 164.696C196.537 165.476 195.991 166.082 195.295 166.514C194.611 166.946 193.843 167.162 192.991 167.162C192.259 167.162 191.611 167.012 191.047 166.712C190.495 166.412 190.045 166.034 189.697 165.578V171.752H187.177V157.028H189.697V158.468ZM194.971 161.978C194.971 161.378 194.845 160.862 194.593 160.43C194.353 159.986 194.029 159.65 193.621 159.422C193.225 159.194 192.793 159.08 192.325 159.08C191.869 159.08 191.437 159.2 191.029 159.44C190.633 159.668 190.309 160.004 190.057 160.448C189.817 160.892 189.697 161.414 189.697 162.014C189.697 162.614 189.817 163.136 190.057 163.58C190.309 164.024 190.633 164.366 191.029 164.606C191.437 164.834 191.869 164.948 192.325 164.948C192.793 164.948 193.225 164.828 193.621 164.588C194.029 164.348 194.353 164.006 194.593 163.562C194.845 163.118 194.971 162.59 194.971 161.978ZM203.804 167.162C202.844 167.162 201.98 166.952 201.212 166.532C200.444 166.1 199.838 165.494 199.394 164.714C198.962 163.934 198.746 163.034 198.746 162.014C198.746 160.994 198.968 160.094 199.412 159.314C199.868 158.534 200.486 157.934 201.266 157.514C202.046 157.082 202.916 156.866 203.876 156.866C204.836 156.866 205.706 157.082 206.486 157.514C207.266 157.934 207.878 158.534 208.322 159.314C208.778 160.094 209.006 160.994 209.006 162.014C209.006 163.034 208.772 163.934 208.304 164.714C207.848 165.494 207.224 166.1 206.432 166.532C205.652 166.952 204.776 167.162 203.804 167.162ZM203.804 164.966C204.26 164.966 204.686 164.858 205.082 164.642C205.49 164.414 205.814 164.078 206.054 163.634C206.294 163.19 206.414 162.65 206.414 162.014C206.414 161.066 206.162 160.34 205.658 159.836C205.166 159.32 204.56 159.062 203.84 159.062C203.12 159.062 202.514 159.32 202.022 159.836C201.542 160.34 201.302 161.066 201.302 162.014C201.302 162.962 201.536 163.694 202.004 164.21C202.484 164.714 203.084 164.966 203.804 164.966ZM213.374 158.576C213.698 158.048 214.118 157.634 214.634 157.334C215.162 157.034 215.762 156.884 216.434 156.884V159.53H215.768C214.976 159.53 214.376 159.716 213.968 160.088C213.572 160.46 213.374 161.108 213.374 162.032V167H210.854V157.028H213.374V158.576ZM221.773 161.978C221.773 160.97 221.971 160.076 222.367 159.296C222.775 158.516 223.321 157.916 224.005 157.496C224.701 157.076 225.475 156.866 226.327 156.866C227.071 156.866 227.719 157.016 228.271 157.316C228.835 157.616 229.285 157.994 229.621 158.45V157.028H232.159V167H229.621V165.542C229.297 166.01 228.847 166.4 228.271 166.712C227.707 167.012 227.053 167.162 226.309 167.162C225.469 167.162 224.701 166.946 224.005 166.514C223.321 166.082 222.775 165.476 222.367 164.696C221.971 163.904 221.773 162.998 221.773 161.978ZM229.621 162.014C229.621 161.402 229.501 160.88 229.261 160.448C229.021 160.004 228.697 159.668 228.289 159.44C227.881 159.2 227.443 159.08 226.975 159.08C226.507 159.08 226.075 159.194 225.679 159.422C225.283 159.65 224.959 159.986 224.707 160.43C224.467 160.862 224.347 161.378 224.347 161.978C224.347 162.578 224.467 163.106 224.707 163.562C224.959 164.006 225.283 164.348 225.679 164.588C226.087 164.828 226.519 164.948 226.975 164.948C227.443 164.948 227.881 164.834 228.289 164.606C228.697 164.366 229.021 164.03 229.261 163.598C229.501 163.154 229.621 162.626 229.621 162.014ZM233.972 161.996C233.972 161 234.176 160.118 234.584 159.35C235.004 158.57 235.568 157.964 236.276 157.532C236.984 157.1 237.764 156.884 238.616 156.884C239.324 156.884 239.948 157.022 240.488 157.298C241.04 157.562 241.484 157.904 241.82 158.324V157.028H244.358V171.752H241.82V165.632C241.484 166.064 241.034 166.424 240.47 166.712C239.906 167 239.27 167.144 238.562 167.144C237.722 167.144 236.948 166.928 236.24 166.496C235.544 166.052 234.992 165.44 234.584 164.66C234.176 163.88 233.972 162.992 233.972 161.996ZM241.82 162.014C241.82 161.402 241.694 160.874 241.442 160.43C241.19 159.986 240.86 159.65 240.452 159.422C240.056 159.194 239.63 159.08 239.174 159.08C238.73 159.08 238.304 159.194 237.896 159.422C237.5 159.65 237.176 159.986 236.924 160.43C236.672 160.862 236.546 161.384 236.546 161.996C236.546 162.608 236.672 163.142 236.924 163.598C237.176 164.042 237.5 164.378 237.896 164.606C238.304 164.834 238.73 164.948 239.174 164.948C239.63 164.948 240.056 164.834 240.452 164.606C240.86 164.378 241.19 164.042 241.442 163.598C241.694 163.154 241.82 162.626 241.82 162.014ZM256.233 157.028V167H253.695V165.74C253.371 166.172 252.945 166.514 252.417 166.766C251.901 167.006 251.337 167.126 250.725 167.126C249.945 167.126 249.255 166.964 248.655 166.64C248.055 166.304 247.581 165.818 247.233 165.182C246.897 164.534 246.729 163.766 246.729 162.878V157.028H249.249V162.518C249.249 163.31 249.447 163.922 249.843 164.354C250.239 164.774 250.779 164.984 251.463 164.984C252.159 164.984 252.705 164.774 253.101 164.354C253.497 163.922 253.695 163.31 253.695 162.518V157.028H256.233ZM259.998 155.84C259.554 155.84 259.182 155.702 258.882 155.426C258.594 155.138 258.45 154.784 258.45 154.364C258.45 153.944 258.594 153.596 258.882 153.32C259.182 153.032 259.554 152.888 259.998 152.888C260.442 152.888 260.808 153.032 261.096 153.32C261.396 153.596 261.546 153.944 261.546 154.364C261.546 154.784 261.396 155.138 261.096 155.426C260.808 155.702 260.442 155.84 259.998 155.84ZM261.24 157.028V167H258.72V157.028H261.24ZM264.845 167.126C264.389 167.126 264.011 166.988 263.711 166.712C263.423 166.424 263.279 166.07 263.279 165.65C263.279 165.23 263.423 164.882 263.711 164.606C264.011 164.318 264.389 164.174 264.845 164.174C265.289 164.174 265.655 164.318 265.943 164.606C266.231 164.882 266.375 165.23 266.375 165.65C266.375 166.07 266.231 166.424 265.943 166.712C265.655 166.988 265.289 167.126 264.845 167.126ZM269.521 167.126C269.065 167.126 268.687 166.988 268.387 166.712C268.099 166.424 267.955 166.07 267.955 165.65C267.955 165.23 268.099 164.882 268.387 164.606C268.687 164.318 269.065 164.174 269.521 164.174C269.965 164.174 270.331 164.318 270.619 164.606C270.907 164.882 271.051 165.23 271.051 165.65C271.051 166.07 270.907 166.424 270.619 166.712C270.331 166.988 269.965 167.126 269.521 167.126ZM274.197 167.126C273.741 167.126 273.363 166.988 273.063 166.712C272.775 166.424 272.631 166.07 272.631 165.65C272.631 165.23 272.775 164.882 273.063 164.606C273.363 164.318 273.741 164.174 274.197 164.174C274.641 164.174 275.007 164.318 275.295 164.606C275.583 164.882 275.727 165.23 275.727 165.65C275.727 166.07 275.583 166.424 275.295 166.712C275.007 166.988 274.641 167.126 274.197 167.126Z" fill="#0D114F"/>
<circle opacity="0.1" cx="145.5" cy="67.5" r="67.5" fill="url(#paint0_linear)"/>
<path fill-rule="evenodd" clip-rule="evenodd" d="M140.423 66.5012C128.644 66.5012 119.094 74.8799 119.094 85.2155V85.2633C119.094 95.5989 128.644 103.978 140.423 103.978H171.877C173.052 103.978 174.204 103.894 175.328 103.734L181.422 108.898C181.587 109.039 181.809 109.117 182.039 109.117C182.53 109.117 182.928 108.768 182.928 108.338L182.928 101.273C189.089 97.9914 193.206 92.0491 193.206 85.2633V85.2155C193.206 74.8799 183.656 66.5012 171.877 66.5012H140.423Z" fill="#1D4885"/>
<path d="M145.596 21.6649H100.685C83.8573 21.6649 70.2156 33.6344 70.2156 48.3996C70.2156 63.1648 83.8573 75.1343 100.685 75.1343H145.596C162.424 75.1343 176.066 63.1648 176.066 48.3996C176.066 33.6344 162.424 21.6649 145.596 21.6649Z" fill="url(#paint1_linear)"/>
<path fill-rule="evenodd" clip-rule="evenodd" d="M84.895 67.3577V81.3535C84.895 81.9688 85.4634 82.4675 86.1646 82.4675C86.4934 82.4675 86.8095 82.3555 87.0461 82.1552L98.7678 72.2316L84.895 67.3577Z" fill="url(#paint2_linear)"/>
<path d="M102.748 51.7415C105.465 51.7415 107.668 49.8089 107.668 47.4249C107.668 45.041 105.465 43.1084 102.748 43.1084C100.031 43.1084 97.8289 45.041 97.8289 47.4249C97.8289 49.8089 100.031 51.7415 102.748 51.7415Z" fill="white"/>
<path d="M122.903 51.7415C125.62 51.7415 127.823 49.8089 127.823 47.4249C127.823 45.041 125.62 43.1084 122.903 43.1084C120.186 43.1084 117.983 45.041 117.983 47.4249C117.983 49.8089 120.186 51.7415 122.903 51.7415Z" fill="white"/>
<path d="M143.533 51.7415C146.25 51.7415 148.453 49.8089 148.453 47.4249C148.453 45.041 146.25 43.1084 143.533 43.1084C140.816 43.1084 138.614 45.041 138.614 47.4249C138.614 49.8089 140.816 51.7415 143.533 51.7415Z" fill="white"/>
<defs>
<linearGradient id="paint0_linear" x1="239.583" y1="-204.224" x2="138.406" y2="149.495" gradientUnits="userSpaceOnUse">
<stop stop-color="#5498FF"/>
<stop offset="0.515625" stop-color="#428EFF"/>
<stop offset="1" stop-color="#297FFF"/>
</linearGradient>
<linearGradient id="paint1_linear" x1="196.909" y1="-59.2221" x2="175.458" y2="89.2381" gradientUnits="userSpaceOnUse">
<stop stop-color="#5498FF"/>
<stop offset="0.515625" stop-color="#428EFF"/>
<stop offset="1" stop-color="#297FFF"/>
</linearGradient>
<linearGradient id="paint2_linear" x1="101.5" y1="44.5" x2="89.337" y2="83.5398" gradientUnits="userSpaceOnUse">
<stop stop-color="#5498FF"/>
<stop offset="0.515625" stop-color="#428EFF"/>
<stop offset="1" stop-color="#297FFF"/>
</linearGradient>
</defs>
</svg>
